# xmcd CD database file
#
# Track frame offsets:
#	150
#	13953
#	28778
#	40773
#	53166
#	67669
#	82162
#	95204
#	106725
#	117546
#
# Disc length: 1778 seconds
#
# Revision: 0
# Processed by: cddbd v1.5.2PL0 Copyright (c) Steve Scherf et al.
# Submitted via: CDex 1.70beta2
#
DISCID=8306f00a
DTITLE=Merle Haggard  - Ramblin' Fever
DYEAR=1977
DGENRE=Country
TTITLE0=Ramblin' Fever
TTITLE1=When My Blue Moon Turns To Gold Again
TTITLE2=Ghost Story
TTITLE3=Set Me Free
TTITLE4=Love Somebody To Death
TTITLE5=If We're Not Back In Love By Monday
TTITLE6=I Think It's Gone Forever
TTITLE7=Ain't Your Memory Got No Pride At All
TTITLE8=My Love For You
TTITLE9=The Last Letter
EXTD=YEAR: 1977
EXTT0=
EXTT1=
EXTT2=
EXTT3=
EXTT4=
EXTT5=
EXTT6=
EXTT7=
EXTT8=
EXTT9=
PLAYORDER=
